<svg width="27" height="25" viewBox="0 0 27 25" fill="none" xmlns="http://www.w3.org/2000/svg">
<path d="M1.70881 0.0774659C1.31972 0.181224 0.915063 0.435431 0.619353 0.75708C-0.23665 1.6909 -0.200335 3.0605 0.697171 3.96839C1.35085 4.62725 2.24316 4.8192 3.16142 4.50274L3.47788 4.39379L3.79953 4.67913C3.97592 4.83476 4.73854 5.52475 5.49079 6.20437L6.86558 7.44946L7.14572 7.05518C7.30136 6.83729 7.50888 6.56752 7.60226 6.45858C7.70083 6.34444 7.77865 6.2355 7.77865 6.21474C7.77865 6.1888 5.1432 3.78162 4.5414 3.25764C4.52065 3.23689 4.53621 3.07088 4.5829 2.8893C4.62959 2.70773 4.66591 2.44315 4.66591 2.29788C4.65553 0.819335 3.15623 -0.311626 1.70881 0.0774659Z" fill="#037EFF"/>
<path d="M22.3721 1.6284C21.2049 1.94487 20.437 3.09658 20.6342 4.23792C20.6653 4.43506 20.7068 4.62701 20.7224 4.66851C20.7431 4.72039 20.4474 5.00054 19.8197 5.54008L18.8859 6.33901L19.1349 6.65547C19.275 6.83186 19.4773 7.1172 19.5914 7.29358L19.7937 7.61523L20.7743 6.7748L21.7548 5.92917L22.066 6.05368C22.9376 6.40646 23.9648 6.17819 24.6237 5.47782C25.0491 5.02648 25.2618 4.49731 25.2618 3.87995C25.2618 2.38584 23.7936 1.2445 22.3721 1.6284Z" fill="#037EFF"/>
<path d="M12.6294 5.44694C11.2442 5.63889 10.1133 6.15249 9.2054 7.0085C8.16263 7.9942 7.56084 9.24967 7.41039 10.7645C7.22881 12.518 7.88767 14.3857 9.1172 15.5893C9.96283 16.4245 11.1664 17.0004 12.453 17.1871C13.1482 17.2909 13.6566 17.2909 14.2428 17.1923C17.6876 16.6009 19.8925 13.2288 19.0365 9.8774C18.4814 7.71405 16.7486 6.0228 14.5801 5.54032C14.0405 5.421 13.1223 5.3795 12.6294 5.44694ZM14.0042 7.72443V8.50261H13.226H12.4478V7.72443V6.94624H13.226H14.0042V7.72443ZM17.1169 9.79958V10.5778H16.3388H15.5606V9.79958V9.0214H16.3388H17.1169V9.79958ZM11.9031 9.92928C12.8317 10.1264 13.4906 10.7853 13.6877 11.7087C13.8486 12.4817 13.6462 13.208 13.1067 13.7787C12.1936 14.7436 10.7255 14.7696 9.78644 13.8358C9.2469 13.3014 9.00307 12.5595 9.12758 11.8281C9.29359 10.8527 9.96283 10.1368 10.9122 9.92928C11.3272 9.8359 11.4673 9.8359 11.9031 9.92928ZM16.8575 13.2236V14.0018H16.0794H15.3012V13.2236V12.4454H16.0794H16.8575V13.2236Z" fill="#037EFF"/>
<path d="M11.1249 11.4805C10.7254 11.6517 10.549 12.0875 10.715 12.4922C10.8862 12.902 11.3687 13.0784 11.7682 12.8709C12.0172 12.7464 12.1469 12.5492 12.1728 12.2535C12.2039 11.9163 12.0691 11.6777 11.7733 11.522C11.514 11.3923 11.3531 11.382 11.1249 11.4805Z" fill="#037EFF"/>
<path d="M20.2815 14.0223C20.2815 14.0587 20.1414 14.3699 19.9702 14.7071C19.799 15.0392 19.6641 15.3245 19.6745 15.3297C19.6797 15.3349 20.1829 15.615 20.7899 15.9522L21.8949 16.5696L21.9105 16.9846C21.9727 18.4839 23.3787 19.5371 24.8209 19.1635C25.2619 19.0494 25.5939 18.8471 25.9052 18.5099C26.8027 17.5449 26.7664 16.0975 25.8274 15.2259C24.9973 14.4529 23.8145 14.3699 22.8806 15.0132L22.6212 15.1896L21.511 14.5723C20.8989 14.2299 20.3749 13.9497 20.3386 13.9497C20.3074 13.9497 20.2815 13.9808 20.2815 14.0223Z" fill="#037EFF"/>
<path d="M6.0044 18.6033L4.04857 20.5592L3.74767 20.4658C3.27038 20.3101 2.81904 20.2998 2.39882 20.4243C1.56875 20.6785 0.972146 21.301 0.749066 22.1518C0.375538 23.5474 1.52206 24.9896 3.0058 25C3.61797 25 4.15751 24.7821 4.61405 24.3463C5.13803 23.8483 5.37148 23.2465 5.32479 22.5409C5.30923 22.3075 5.25735 22.017 5.21584 21.8873L5.12765 21.659L7.15612 19.6305L9.18458 17.6021L8.97188 17.4568C8.85256 17.379 8.58279 17.1663 8.37527 16.9795C8.16257 16.7979 7.98618 16.6475 7.9758 16.6475C7.96543 16.6475 7.0783 17.5294 6.0044 18.6033Z" fill="#037EFF"/>
<path d="M17.2465 17.6954C17.1635 17.7524 16.8574 17.9133 16.5721 18.0533C16.2868 18.1986 16.0585 18.3283 16.0637 18.349C16.0689 18.3698 16.3438 18.873 16.6707 19.4696C17.0027 20.0662 17.2725 20.5746 17.2725 20.5954C17.2725 20.6213 17.2154 20.7199 17.1428 20.8237C16.6862 21.5033 16.6499 22.4319 17.0494 23.1997C17.6564 24.3566 19.1505 24.7717 20.2918 24.1024C20.572 23.9364 21.0129 23.4747 21.1582 23.1945C21.6303 22.2711 21.4591 21.192 20.7276 20.4553C20.2399 19.9677 19.55 19.7083 18.9118 19.7757L18.6369 19.8016L18.0973 18.8367C17.8068 18.3023 17.5267 17.8043 17.4852 17.7317L17.4022 17.5968L17.2465 17.6954Z" fill="#037EFF"/>
</svg>
