<svg width="30" height="30" viewBox="0 0 30 30" fill="none" xmlns="http://www.w3.org/2000/svg">
<g clip-path="url(#clip0_1565_2397)">
<path d="M29.3227 14.9742C29.324 16.9078 28.932 18.8214 28.1705 20.5987C27.4089 22.376 26.2938 23.9798 24.893 25.3125H5.27343C4.90026 24.9832 4.54801 24.631 4.21875 24.2578L4.12265 24.1406C3.30234 23.1633 0.6457 19.7016 0.783982 14.9648C0.97031 8.41289 6.48633 0.703125 15.0516 0.703125C18.8365 0.703125 22.4664 2.20668 25.1427 4.88303C27.8191 7.55938 29.3227 11.1893 29.3227 14.9742Z" fill="#84D0F7"/>
<path d="M23.2582 23.4797C22.6723 25.3547 18.8461 26.3613 15.102 26.3813C11.359 26.3613 7.52813 25.3605 6.94688 23.4797C6.59532 22.3594 7.68282 21.8227 8.13868 18.9422C8.56524 16.2527 7.65352 15.7172 7.85157 12.6563C7.98282 10.6641 8.11172 8.71172 9.49219 7.01367C11.4844 4.5832 14.6016 4.51641 15 4.51172C15.3598 4.51172 18.6129 4.52109 20.6895 7.01367C22.541 9.24023 22.3008 12.1313 22.3359 12.6563C22.5375 15.716 21.6258 16.2516 22.0523 18.941C22.5223 21.8227 23.6051 22.3594 23.2582 23.4797Z" fill="#2D2D2D"/>
<path d="M25.9816 24.1523C25.6404 24.5584 25.2765 24.945 24.8918 25.3102C22.2393 27.8401 18.7136 29.2499 15.0481 29.2465C12.0117 29.2465 9.4711 28.1918 7.61368 27.0469C6.78495 26.5375 6.00194 25.9572 5.27344 25.3125C4.90046 24.983 4.54822 24.6308 4.21876 24.2578C4.19063 24.2273 4.16016 24.1887 4.12149 24.1406C4.99944 23.2634 5.9963 22.5139 7.08282 21.9141C8.11055 21.3477 9.19913 20.8995 10.3277 20.5781C11.8949 21.9656 13.4629 23.352 15.0316 24.7371L19.7789 20.5781C19.8117 20.5887 19.8481 20.5969 19.8809 20.6062C19.8905 20.612 19.9013 20.6156 19.9125 20.6168C20.9891 20.9348 22.0286 21.3669 23.0133 21.9059C24.1031 22.512 25.1023 23.2682 25.9816 24.1523Z" fill="#AA392D"/>
<path d="M19.7754 20.5911L15.0281 24.7501C13.4578 23.3642 11.8898 21.9778 10.3242 20.5911L10.4414 20.5583L10.5422 20.5302C10.5703 20.522 10.6031 20.5149 10.6371 20.5044H10.6441C10.7613 20.4739 10.9066 20.4353 11.0637 20.3989C12.3863 21.5325 13.7082 22.6653 15.0293 23.7974C16.3676 22.6622 17.7051 21.5294 19.0418 20.3989C19.3898 20.481 19.6617 20.5583 19.7754 20.5911Z" fill="#7C211A"/>
<path d="M19.0371 20.3989C17.6988 21.5325 16.3613 22.6653 15.0246 23.7973C13.7012 22.6622 12.3793 21.5293 11.059 20.3989C11.2277 20.3579 11.4106 20.3192 11.5852 20.2817C11.7598 20.2442 11.9168 20.2172 12.0738 20.1915C12.1541 19.9948 12.2191 19.7922 12.2684 19.5856C12.2965 19.4684 12.3176 19.3653 12.3328 19.2622C12.6454 19.5251 12.9928 19.7436 13.3652 19.9114C13.425 19.9372 13.4918 19.9688 13.5715 20.0016C14.0255 20.1944 14.5138 20.2938 15.007 20.2938C15.5003 20.2938 15.9885 20.1944 16.4426 20.0016C16.5481 19.9583 16.6406 19.9172 16.7156 19.8844C17.0824 19.712 17.4251 19.4926 17.7352 19.2317C17.7691 19.384 17.8102 19.5422 17.8523 19.7098C17.8945 19.8774 17.9602 20.0461 18.0176 20.1973C18.019 20.1966 18.0206 20.1962 18.0223 20.1962C18.0239 20.1962 18.0255 20.1966 18.027 20.1973C18.1758 20.2231 18.3152 20.2477 18.4383 20.2735C18.6527 20.3086 18.8473 20.3532 19.0371 20.3989Z" fill="#EAB198"/>
<path opacity="0.2" d="M19.9113 20.6251C19.8129 20.7423 19.7133 20.8442 19.6102 20.9462C19.3804 21.1772 19.1341 21.3911 18.8731 21.586C18.5311 21.843 18.1573 22.0545 17.761 22.2153C17.5124 22.3177 17.254 22.3943 16.9899 22.4438C16.7582 22.4886 16.5226 22.5094 16.2867 22.506C15.8204 22.4971 15.3598 22.4013 14.9285 22.2235L14.8512 22.1919C14.507 22.0453 14.181 21.8593 13.8797 21.6376C13.312 21.2144 12.8114 20.7079 12.3949 20.1353C12.3281 20.045 12.2613 19.9524 12.1981 19.8575C12.2098 19.8165 12.2227 19.7755 12.2356 19.731C12.2781 19.5766 12.3125 19.4202 12.3387 19.2622C12.4078 19.3185 12.4805 19.3724 12.5496 19.4239C12.74 19.5631 12.9401 19.6884 13.1484 19.7989L13.2094 19.8329L13.2844 19.8704L13.3711 19.9114L13.4227 19.9349L13.466 19.956L13.5199 19.9782L13.5738 19.9993L13.5973 20.0099C13.6184 20.0204 13.6383 20.0274 13.6594 20.0356C13.6805 20.0438 13.7133 20.0532 13.7391 20.0638C13.7672 20.0743 13.7953 20.0849 13.8211 20.0919L13.8422 20.1001L13.9031 20.1177C13.9324 20.1282 13.9629 20.1388 13.991 20.1458C14.005 20.1479 14.0188 20.1515 14.032 20.1563L14.1164 20.1798C14.2911 20.2244 14.469 20.2557 14.6485 20.2735C14.6672 20.2747 14.686 20.2747 14.7047 20.2735C14.7176 20.2747 14.7305 20.2747 14.7434 20.2735C14.7671 20.2767 14.7909 20.2787 14.8149 20.2794H14.8793H15.0211C15.4079 20.2768 15.7918 20.2135 16.159 20.0919H16.166C16.1789 20.086 16.1953 20.0813 16.2082 20.0767C16.2844 20.0532 16.3594 20.0228 16.4367 19.9935C16.4431 19.9898 16.4498 19.9867 16.4567 19.9841C16.4906 19.9712 16.5234 19.956 16.5539 19.9431L16.5797 19.9325C16.9223 19.7776 17.2472 19.5862 17.5488 19.3618L17.7387 19.2153C17.7727 19.3747 17.8184 19.547 17.8723 19.7263C17.9262 19.9056 17.9731 20.0403 18.027 20.181L18.1547 20.2044L18.2836 20.2278L18.409 20.2513L18.5039 20.2712C18.5248 20.2744 18.5456 20.2787 18.566 20.2841C18.7254 20.3181 18.8848 20.3509 19.0348 20.3896C19.2848 20.4481 19.5309 20.5122 19.7731 20.5817L19.9113 20.6251Z" fill="black"/>
<path d="M21.8484 14.0437C21.8297 14.6519 21.4418 15.2671 21.007 15.4933C20.9487 15.524 20.887 15.5476 20.823 15.5636H20.809C20.7271 15.5835 20.6419 15.5852 20.5592 15.5686C20.4766 15.552 20.3987 15.5175 20.3308 15.4675C20.3192 15.4603 20.3082 15.4521 20.298 15.4429C20.2492 15.405 20.2051 15.3613 20.1668 15.3128C19.8539 14.9366 19.725 14.2276 19.9324 13.6628C20.0164 13.4415 20.1453 13.24 20.3109 13.071C20.4501 12.9212 20.6302 12.8156 20.8289 12.7675C20.9201 12.7487 21.0142 12.7487 21.1055 12.7675C21.6258 12.873 21.8637 13.5351 21.8484 14.0437Z" fill="#EAB198"/>
<path opacity="0.3" d="M21.8484 14.0436C21.8297 14.6518 21.4418 15.2659 21.0082 15.4944C20.9487 15.5231 20.8867 15.5462 20.823 15.5636C20.823 15.5636 20.8148 15.5636 20.8078 15.5636C20.726 15.583 20.6409 15.5846 20.5584 15.5682C20.4759 15.5518 20.3979 15.5179 20.3297 15.4686L20.2969 15.4429C20.2488 15.4053 20.2055 15.362 20.168 15.314C19.8516 14.9366 19.7262 14.2276 19.9336 13.6628C20.0167 13.4414 20.1453 13.2398 20.3109 13.071C20.4151 12.9632 20.5388 12.8761 20.6754 12.8143C20.7245 12.794 20.7755 12.7787 20.8277 12.7686C20.9189 12.7493 21.0131 12.7493 21.1043 12.7686C21.1182 12.7713 21.1319 12.7749 21.1453 12.7792C21.6398 12.9081 21.8637 13.5503 21.8484 14.0436Z" fill="black"/>
<path d="M9.92461 15.3175C9.87733 15.3761 9.82211 15.4278 9.76054 15.4711C9.69271 15.521 9.61475 15.5555 9.53214 15.5722C9.44954 15.5888 9.3643 15.587 9.28242 15.5672H9.26836C9.20443 15.5512 9.14265 15.5276 9.08437 15.4968C8.64961 15.2707 8.26406 14.6554 8.24297 14.0472C8.22773 13.5386 8.46562 12.8754 8.98242 12.7734C9.27539 12.7136 9.55664 12.8566 9.77695 13.0781C9.94297 13.2468 10.0719 13.4484 10.1555 13.6699C10.3664 14.2312 10.2375 14.939 9.92461 15.3175Z" fill="#EAB198"/>
<path d="M20.8313 12.764V12.7734C20.8313 12.8191 20.8313 12.8683 20.8313 12.9164C20.774 13.7806 20.5961 14.6326 20.3027 15.4476C20.2688 15.5425 20.2324 15.6375 20.1973 15.7324C19.6418 17.148 18.7734 18.396 17.7363 19.2257L17.5465 19.3722C17.2448 19.5966 16.9199 19.788 16.5774 19.9429L16.5516 19.9535C16.5211 19.9664 16.4883 19.9816 16.4543 19.9945C16.4474 19.9971 16.4408 20.0002 16.4344 20.0039C16.357 20.0332 16.282 20.0636 16.2059 20.0871C16.193 20.0871 16.1766 20.0964 16.1637 20.1023H16.1566C15.7895 20.2239 15.4055 20.2872 15.0188 20.2898H14.877H14.8125C14.7886 20.2891 14.7647 20.2871 14.741 20.2839C14.7282 20.2851 14.7152 20.2851 14.7024 20.2839C14.6836 20.2851 14.6648 20.2851 14.6461 20.2839C14.4675 20.2664 14.2904 20.2354 14.1164 20.1914L14.032 20.1679C14.0188 20.163 14.005 20.1595 13.991 20.1574C13.9629 20.1503 13.9324 20.1398 13.9031 20.1292L13.8422 20.1117L13.8211 20.1035C13.7953 20.0964 13.7672 20.0859 13.7391 20.0753C13.7133 20.0648 13.6875 20.0566 13.6594 20.0472C13.6313 20.0378 13.6184 20.032 13.5973 20.0214L13.5738 20.0109L13.5199 19.9898L13.466 19.9675L13.4227 19.9464L13.3711 19.923L13.2844 19.882L13.2094 19.8445L13.1484 19.8105C12.9401 19.7 12.74 19.5747 12.5496 19.4355C12.4805 19.3839 12.4078 19.33 12.3387 19.2738C12.2484 19.2011 12.1617 19.1273 12.0738 19.05C11.9859 18.9726 11.9016 18.8929 11.8195 18.8085C11.7375 18.7242 11.6508 18.6386 11.5734 18.5519C11.4961 18.4652 11.4117 18.3714 11.3391 18.28C10.177 16.8246 9.46687 15.0605 9.29649 13.2058C9.2836 13.0886 9.27657 12.9644 9.27071 12.8437C9.25071 12.4187 9.26364 11.9928 9.30938 11.5699C9.33048 11.3976 9.35274 11.2277 9.38438 11.0589C9.42306 10.8527 9.46876 10.6453 9.52852 10.4343C9.66368 9.92713 9.84572 9.4336 10.0723 8.96011C10.568 7.91948 11.2852 6.94097 12.1816 6.24487C13.002 5.60972 13.9617 5.20894 15.0434 5.20659C16.7871 5.19839 18.2309 6.22378 19.241 7.60308C19.6511 8.16412 19.9907 8.77336 20.2524 9.41714C20.3192 9.57886 20.3789 9.74058 20.4352 9.90464C20.5633 10.2815 20.6635 10.6673 20.7352 11.0589C20.7645 11.223 20.7891 11.3894 20.8078 11.557C20.8466 11.9581 20.8545 12.3617 20.8313 12.764Z" fill="#EAB198"/>
<path opacity="0.2" d="M20.8383 12.7734C20.8277 12.941 20.8148 13.0769 20.7996 13.221C20.7762 13.4472 20.7645 13.5574 20.7586 13.5656C20.618 13.7999 19.4953 13.6007 17.8559 12.7253C16.5797 12.0421 16.4402 11.7726 15.2027 11.0191C13.3594 9.89525 12.4359 9.32689 11.4164 9.49213C9.80977 9.74877 8.97539 11.4949 8.67188 11.3929C9.01641 11.4667 9.55781 9.65619 11.0379 9.16635C12.518 8.6765 14.2828 9.73471 16.0957 10.8152C16.6664 11.1574 17.4141 11.6706 18.6516 12.2367C20.3602 13.0148 20.707 12.8531 20.8359 12.771C20.8359 12.7734 20.8359 12.7734 20.8383 12.7734Z" fill="black"/>
<path d="M20.8383 12.7734C20.7094 12.8554 20.3625 13.0171 18.6539 12.239C17.4164 11.673 16.6687 11.1597 16.098 10.8175C14.2852 9.73706 12.5227 8.68355 11.0402 9.1687C9.55781 9.65386 9.01406 11.4667 8.67187 11.3929L8.65195 11.3847C8.39765 11.2675 8.56172 10.1695 8.93672 9.22378C9.50156 7.80347 10.9172 5.79019 13.425 5.13511C13.9582 4.99566 16.0195 4.48941 18.0281 5.64605C20.0133 6.78862 20.5992 8.72105 20.8687 9.62222C20.9613 9.93862 21.648 12.2273 20.8383 12.7734Z" fill="#2D2D2D"/>
</g>
<defs>
<clipPath id="clip0_1565_2397">
<rect width="30" height="30" fill="white"/>
</clipPath>
</defs>
</svg>
