<svg width="30" height="28" viewBox="0 0 30 28" fill="none" xmlns="http://www.w3.org/2000/svg">
<rect x="0.5" y="0.5" width="29" height="26.2727" rx="3.5" stroke="#037EFF"/>
<ellipse cx="6" cy="5.45457" rx="3" ry="2.72727" fill="#037EFF"/>
<path d="M19.1891 12.1236C19.5883 11.5705 20.4117 11.5705 20.8109 12.1236L27.5162 21.4148C27.9935 22.0762 27.521 23 26.7053 23H13.2947C12.479 23 12.0065 22.0762 12.4838 21.4148L19.1891 12.1236Z" fill="#037EFF"/>
<path d="M9.1706 15.2313C9.56697 14.6429 10.433 14.6429 10.8294 15.2313L15.0123 21.4413C15.4597 22.1056 14.9838 23 14.1829 23H5.81709C5.01624 23 4.54029 22.1056 4.9877 21.4413L9.1706 15.2313Z" fill="#037EFF"/>
</svg>
