<svg width="30" height="30" viewBox="0 0 30 30" fill="none" xmlns="http://www.w3.org/2000/svg">
<path d="M29.3273 14.9789C29.3276 16.9117 28.935 18.8244 28.1733 20.6008C27.4116 22.3772 26.2968 23.9802 24.8965 25.3125H5.27343C4.90051 24.9859 4.54827 24.6364 4.21874 24.266L4.12265 24.1488C3.30234 23.1727 0.644526 19.7098 0.781635 14.9707C0.965619 8.41523 6.48398 0.703125 15.0516 0.703125C18.8377 0.703125 22.4688 2.20718 25.1461 4.8844C27.8233 7.56163 29.3273 11.1927 29.3273 14.9789Z" fill="#84D0F7"/>
<path d="M25.984 24.1617C24.6432 25.7567 22.9698 27.0391 21.0811 27.9191C19.1924 28.7991 17.1341 29.2553 15.0504 29.2558C10.4086 29.2558 6.93281 26.7949 5.26992 25.3183C4.8973 24.991 4.54508 24.6411 4.21523 24.2707L4.11914 24.1535C5.71055 22.548 7.85391 21.3011 10.3301 20.5945C11.0156 22.3171 12.8684 23.5546 15.048 23.5546C17.0742 23.5546 18.8191 22.4917 19.6184 20.9648C19.6781 20.8476 19.7355 20.7304 19.7812 20.6039C19.8281 20.6167 19.8574 20.6238 19.9172 20.6425C22.3242 21.3515 24.4207 22.582 25.984 24.1617Z" fill="#AA392D"/>
<path d="M19.7754 20.5981C19.7262 20.7153 19.6723 20.8395 19.6125 20.959C18.8191 22.4825 17.0742 23.5489 15.0422 23.5489C12.8625 23.5489 11.0051 22.3172 10.316 20.5981C10.3687 20.5817 10.4203 20.5688 10.4719 20.5536C10.4964 20.5478 10.5207 20.5408 10.5445 20.5325C10.5715 20.5325 10.5996 20.5196 10.6277 20.5125L10.6641 20.5079C10.6641 20.5079 10.8691 20.4528 11.0613 20.4094C11.425 21.1587 11.9922 21.7904 12.698 22.2324C13.4039 22.6744 14.2199 22.9088 15.0527 22.9088C15.8856 22.9088 16.7016 22.6744 17.4074 22.2324C18.1133 21.7904 18.6805 21.1587 19.0441 20.4094C19.2943 20.444 19.5397 20.5073 19.7754 20.5981Z" fill="#7C211A"/>
<path d="M19.0406 20.406C18.6766 21.1548 18.1093 21.7862 17.4035 22.2279C16.6977 22.6696 15.8818 22.9039 15.0492 22.9039C14.2166 22.9039 13.4007 22.6696 12.6949 22.2279C11.9891 21.7862 11.4218 21.1548 11.0578 20.406C11.216 20.3661 11.3742 20.3298 11.5359 20.2993L11.6531 20.2735L11.7129 20.263C11.7457 20.2548 11.7797 20.2501 11.8137 20.2419L11.9543 20.2185L12.0609 20.1974H12.0703C12.1113 20.0966 12.15 19.9876 12.1875 19.8681C12.2004 19.8294 12.2133 19.7849 12.2273 19.7427C12.273 19.5716 12.307 19.411 12.3305 19.2681C12.5816 19.4735 12.8525 19.6537 13.1391 19.806C13.1603 19.8158 13.1811 19.8267 13.2012 19.8388L13.2762 19.8751C13.3019 19.8892 13.3336 19.9021 13.3617 19.9173L13.4144 19.9407L13.4578 19.9618L13.5129 19.9853L13.5644 20.0052C13.572 20.0092 13.5799 20.0127 13.5879 20.0157L13.65 20.0392L13.7285 20.0708H13.7355L13.8187 20.1013C13.8248 20.1037 13.8311 20.1057 13.8375 20.1071L13.8973 20.1271L13.9887 20.154L14.0297 20.1646L14.1129 20.1868C14.2873 20.2293 14.4642 20.2606 14.6426 20.2806C14.6613 20.2806 14.6789 20.2806 14.6976 20.2864H14.7363H14.809H14.8734C14.9004 20.2864 14.9238 20.2864 14.9496 20.2864H15.014C15.4011 20.2852 15.7854 20.2211 16.1519 20.0966C16.1546 20.0975 16.1575 20.0975 16.1601 20.0966C16.1742 20.0937 16.188 20.0894 16.2012 20.0837C16.2949 20.0521 16.3781 20.0181 16.4508 19.9899L16.5492 19.9478L16.575 19.9384C16.9944 19.7588 17.3843 19.5171 17.7316 19.2212C17.768 19.3817 17.8125 19.5528 17.8664 19.7321C17.9156 19.8938 17.9683 20.0438 18.0223 20.1868C18.0644 20.195 18.1078 20.1997 18.15 20.2103C18.1922 20.2208 18.2355 20.2267 18.2766 20.2337L18.4043 20.2571L18.498 20.2759C18.5215 20.2759 18.5414 20.2829 18.5625 20.2888C18.723 20.3333 18.8824 20.3661 19.0406 20.406Z" fill="#EAB198"/>
<path d="M12.0598 6.31982C11.2093 7.03986 10.5269 7.93746 10.0605 8.94951C9.74107 9.61607 9.51058 10.3217 9.37499 11.0483C9.27228 11.6172 9.23298 12.1958 9.2578 12.7733C9.1731 12.7563 9.08586 12.7563 9.00116 12.7733C8.92264 12.4815 8.8535 12.0702 8.75624 11.544C8.63905 10.8585 8.5746 10.5151 8.59335 10.1378C8.6533 9.36489 8.92048 8.62244 9.36678 7.98857C10.1062 6.95967 11.3437 6.41592 12.0598 6.31982Z" fill="#2D2D2D"/>
<path d="M21.3398 11.5418C21.2461 12.0715 21.1734 12.4793 21.0949 12.7711C21.0117 13.0875 20.9215 13.2715 20.7914 13.3348C20.8125 13.1473 20.8277 12.9633 20.8348 12.7758C20.8847 11.7982 20.7454 10.8201 20.4246 9.89531L20.4715 9.86133L20.523 9.82266C20.5335 9.81569 20.5433 9.80785 20.5523 9.79922C20.7575 9.63849 20.9397 9.45041 21.0937 9.24023C21.1384 9.18164 21.1702 9.11434 21.1871 9.04267C21.2041 8.97101 21.2058 8.89659 21.1922 8.82422C21.3667 9.24106 21.472 9.6836 21.5039 10.1344C21.5238 10.5152 21.4617 10.8586 21.3398 11.5418Z" fill="#2D2D2D"/>
<path opacity="0.2" d="M19.9113 20.6368C19.8141 20.754 19.7133 20.8548 19.6125 20.9591C19.3812 21.1885 19.1345 21.4019 18.8742 21.5978C18.5318 21.8546 18.1581 22.0668 17.7621 22.2294C17.513 22.3302 17.2548 22.4067 16.991 22.4579C16.7574 22.5022 16.5198 22.5222 16.282 22.5177C15.8146 22.5093 15.3528 22.414 14.9203 22.2364C14.8945 22.2274 14.8694 22.2164 14.8453 22.2036C14.5013 22.0573 14.1753 21.8717 13.8738 21.6505C13.304 21.2284 12.8028 20.7208 12.3879 20.1458C12.3199 20.0544 12.2555 19.9618 12.1898 19.8681C12.2027 19.8294 12.2156 19.7849 12.2297 19.7427C12.2754 19.5716 12.3094 19.411 12.3328 19.2681C12.4008 19.322 12.4734 19.377 12.5437 19.4286C12.7347 19.567 12.9343 19.693 13.1414 19.806C13.1627 19.8158 13.1834 19.8267 13.2035 19.8388L13.2785 19.8751C13.3043 19.8892 13.3359 19.9021 13.3641 19.9173L13.4168 19.9407L13.4601 19.9618L13.5152 19.9853L13.5668 20.0052C13.5744 20.0092 13.5822 20.0127 13.5902 20.0157L13.6523 20.0392L13.7309 20.0708H13.7379L13.8211 20.1013C13.8272 20.1037 13.8334 20.1057 13.8398 20.1071L13.8996 20.1271L13.991 20.154L14.032 20.1646L14.1152 20.1868C14.2891 20.2316 14.4662 20.2629 14.6449 20.2806C14.6637 20.2806 14.6812 20.2806 14.7 20.2864H14.7387H14.8113H14.8758C14.9027 20.2864 14.9262 20.2864 14.9519 20.2864H15.0164C15.4033 20.2827 15.7872 20.2187 16.1543 20.0966C16.157 20.0975 16.1598 20.0975 16.1625 20.0966C16.1766 20.0937 16.1903 20.0894 16.2035 20.0837C16.282 20.0567 16.357 20.0286 16.432 19.9981L16.4555 19.9899L16.5516 19.9478L16.5773 19.9384C16.9187 19.7821 17.2427 19.5904 17.5441 19.3665C17.6086 19.3196 17.6719 19.2704 17.734 19.2212C17.7703 19.3817 17.8148 19.5528 17.8687 19.7321C17.918 19.8938 17.9707 20.0438 18.0246 20.1868C18.0668 20.195 18.1101 20.1997 18.1523 20.2103C18.1945 20.2208 18.2379 20.2267 18.2789 20.2337L18.4066 20.2571L18.5004 20.2759C18.5238 20.2759 18.5437 20.2829 18.5648 20.2888C18.723 20.3228 18.8824 20.3556 19.0406 20.3954C19.2867 20.4517 19.534 20.5126 19.7754 20.5876L19.9113 20.6368Z" fill="black"/>
<path d="M21.8508 14.0485C21.832 14.6567 21.4441 15.272 21.0094 15.4981C20.951 15.5287 20.8892 15.5523 20.8254 15.5685H20.8113C20.7326 15.5877 20.6508 15.5901 20.5711 15.5755C20.4864 15.5586 20.4064 15.5234 20.3367 15.4724L20.3039 15.4489C20.2559 15.4101 20.2119 15.3665 20.1727 15.3188C19.8598 14.9415 19.732 14.2325 19.9383 13.6677C20.0227 13.4484 20.1516 13.2489 20.3168 13.0817C20.4563 12.9321 20.6362 12.8262 20.8348 12.777C20.9265 12.7589 21.0208 12.7589 21.1125 12.777C21.6281 12.8778 21.866 13.5399 21.8508 14.0485Z" fill="#EAB198"/>
<path opacity="0.3" d="M21.8508 14.0485C21.832 14.6567 21.4441 15.272 21.0094 15.4981C20.951 15.5287 20.8892 15.5523 20.8254 15.5685H20.8113C20.7326 15.5877 20.6508 15.5901 20.5711 15.5755C20.4864 15.5586 20.4064 15.5234 20.3367 15.4724L20.3039 15.4489C20.2559 15.4101 20.2119 15.3665 20.1727 15.3188C19.8598 14.9415 19.732 14.2325 19.9383 13.6677C20.0227 13.4484 20.1516 13.2489 20.3168 13.0817C20.4563 12.9321 20.6362 12.8262 20.8348 12.777C20.9265 12.7589 21.0208 12.7589 21.1125 12.777C21.6281 12.8778 21.866 13.5399 21.8508 14.0485Z" fill="black"/>
<path d="M9.92226 15.3212C9.88014 15.3762 9.83133 15.4258 9.77695 15.4688C9.77098 15.4735 9.76472 15.4778 9.7582 15.4817C9.69021 15.5314 9.61216 15.5655 9.52955 15.5817C9.44694 15.5979 9.36178 15.5958 9.28008 15.5755C9.27505 15.5765 9.26986 15.5765 9.26484 15.5755C9.20174 15.5593 9.14077 15.5357 9.0832 15.5052C8.64726 15.279 8.26289 14.6638 8.24179 14.0555C8.22539 13.547 8.46211 12.8837 8.9789 12.7805C8.9851 12.7794 8.99146 12.7794 8.99765 12.7805C9.08302 12.7607 9.1715 12.7583 9.25781 12.7735C9.45778 12.8202 9.63907 12.9259 9.77812 13.077C9.80751 13.1068 9.83528 13.1381 9.86133 13.1708C9.98749 13.3183 10.0874 13.4863 10.1566 13.6677C10.3641 14.236 10.2363 14.945 9.92226 15.3212Z" fill="#EAB198"/>
<path d="M20.8324 12.7734C20.8254 12.9609 20.8102 13.1449 20.7891 13.3324C20.7085 14.0544 20.5445 14.7646 20.3004 15.4488C19.7555 16.9816 18.8379 18.341 17.734 19.2293C17.6719 19.2785 17.6086 19.3277 17.5441 19.3746C17.2427 19.5985 16.9187 19.7902 16.5773 19.9465L16.5516 19.9559L16.4555 19.998L16.432 20.0062C16.357 20.0367 16.282 20.0648 16.2035 20.0918C16.1903 20.0975 16.1766 20.1018 16.1625 20.1047C16.1598 20.1056 16.157 20.1056 16.1543 20.1047C15.7872 20.2268 15.4033 20.2908 15.0164 20.2945H14.952C14.9262 20.2945 14.9027 20.2945 14.8758 20.2945H14.8113H14.7387H14.7C14.6812 20.2945 14.6637 20.2945 14.6449 20.2887C14.4662 20.271 14.2891 20.2397 14.1152 20.1949L14.032 20.1727L13.991 20.1621L13.8996 20.1352L13.8398 20.1152C13.8334 20.1138 13.8272 20.1118 13.8211 20.1094L13.7379 20.0789H13.7309L13.6523 20.0473L13.5902 20.0238C13.5822 20.0208 13.5744 20.0173 13.5668 20.0133L13.5152 19.9934L13.4602 19.9699L13.4168 19.9488L13.3594 19.9219C13.3312 19.9066 13.2996 19.8937 13.2738 19.8797L13.1988 19.8434C13.1787 19.8313 13.158 19.8203 13.1367 19.8105C12.9297 19.6976 12.73 19.5716 12.5391 19.4332C12.4687 19.3816 12.3961 19.3266 12.3281 19.2727C11.9594 18.9755 11.6224 18.6409 11.3227 18.2742C10.6444 17.4386 10.121 16.4885 9.77695 15.4687C9.7582 15.4277 9.74531 15.3832 9.73008 15.3398C9.51305 14.6896 9.36766 14.0177 9.29648 13.3359C9.29648 13.2926 9.28594 13.2457 9.28359 13.2012C9.27304 13.084 9.2625 12.9668 9.25781 12.8402C9.25781 12.8191 9.25781 12.8016 9.25781 12.7805C9.23282 12.2021 9.27212 11.6228 9.375 11.0531C9.51171 10.3263 9.74339 9.62069 10.0641 8.9543C10.5304 7.94224 11.2128 7.04464 12.0633 6.32461C12.0996 6.29414 12.1371 6.26484 12.1734 6.23672C12.9838 5.57915 13.9917 5.21306 15.0352 5.19727C16.1766 5.19727 17.1891 5.63086 18.0363 6.32227C18.4872 6.69322 18.8885 7.12054 19.2305 7.59375C19.6393 8.15496 19.9785 8.76371 20.2406 9.40664C20.3086 9.56719 20.3684 9.73125 20.4223 9.89531C20.7431 10.8201 20.8823 11.7982 20.8324 12.7758V12.7734Z" fill="#EAB198"/>
<path opacity="0.2" d="M21.5027 10.1344C21.3901 10.2637 21.2648 10.3814 21.1289 10.4859C21.1184 10.4965 21.0691 10.5328 21.0047 10.582C20.898 10.6582 20.7891 10.7332 20.6766 10.8059C19.4548 11.6006 18.0374 12.043 16.5804 12.0844C15.1234 12.1257 13.6833 11.7644 12.4184 11.0402C12.1726 10.8964 11.9344 10.7399 11.7047 10.5715C11.6262 10.5141 11.5512 10.4543 11.4762 10.398C11.2725 10.2409 11.0769 10.0735 10.8902 9.89648C10.8047 9.81328 10.7191 9.72773 10.6359 9.63867C10.527 9.52148 10.4203 9.4043 10.3195 9.28711C10.2767 9.23771 10.2441 9.18037 10.2234 9.11836C10.434 9.32656 10.6567 9.52221 10.8902 9.7043C11.1872 9.93847 11.5005 10.1511 11.8277 10.3406C12.9294 10.9764 14.1679 11.3378 15.4386 11.3941C16.7093 11.4504 17.9749 11.2 19.1285 10.6641C19.5812 10.4508 20.0128 10.1954 20.4176 9.90117L20.4645 9.86719L20.516 9.82852C20.5264 9.82155 20.5362 9.81371 20.5453 9.80508C20.7533 9.64304 20.9379 9.45295 21.0937 9.24023C21.1384 9.18164 21.1702 9.11434 21.1871 9.04267C21.2041 8.97101 21.2058 8.89659 21.1922 8.82422C21.3663 9.24113 21.4712 9.68367 21.5027 10.1344Z" fill="black"/>
<path d="M21.0937 9.2402C20.9393 9.45045 20.7567 9.63853 20.5512 9.79918C20.5421 9.80781 20.5323 9.81565 20.5219 9.82262L20.4703 9.86129L20.4234 9.89528C20.0186 10.1895 19.5871 10.4449 19.1344 10.6582C17.982 11.1954 16.7174 11.4476 15.4471 11.3933C14.1768 11.3391 12.9383 10.98 11.8359 10.3464C11.5087 10.1569 11.1954 9.9443 10.8984 9.71012C10.6649 9.52804 10.4422 9.33239 10.2316 9.12418C10.1742 9.06676 10.1144 9.00699 10.0629 8.95309C9.95273 8.8359 9.8496 8.71871 9.74765 8.60153C9.66648 8.50485 9.62198 8.38265 9.62198 8.25641C9.62198 8.13017 9.66648 8.00797 9.74765 7.91129C10.1749 7.40218 10.6647 6.94899 11.2055 6.56246C11.3531 6.45621 11.5062 6.35504 11.6648 6.25895C12.9042 5.50013 14.3296 5.09976 15.7828 5.10231C16.1543 5.10231 17.1809 5.10231 18.116 5.45387C19.118 5.82887 19.8434 6.5402 20.3426 7.23629C20.6714 7.69437 20.9466 8.18861 21.1629 8.70934C21.1787 8.74669 21.189 8.78618 21.1934 8.82653C21.2065 8.89861 21.2044 8.97264 21.1872 9.04388C21.1701 9.11511 21.1382 9.18198 21.0937 9.2402Z" fill="#2D2D2D"/>
</svg>
