<svg width="512" height="512" viewBox="0 0 512 512" fill="none" xmlns="http://www.w3.org/2000/svg">
<path d="M457.184 297.532C480.117 186.402 408.619 77.7225 297.489 54.7894C186.359 31.8564 77.6796 103.354 54.7466 214.484C31.8136 325.614 103.311 434.294 214.441 457.227C325.572 480.16 434.251 408.662 457.184 297.532Z" fill="#DFDDDE"/>
<path d="M463.642 304.359C490.349 189.682 419.036 75.0666 304.358 48.3592C189.68 21.6518 75.0654 92.9657 48.358 207.643C21.6506 322.321 92.9645 436.936 207.642 463.643C322.32 490.351 436.935 419.037 463.642 304.359Z" fill="#CCCCCC"/>
<path d="M457.184 297.532C480.117 186.402 408.619 77.7225 297.489 54.7894C186.359 31.8564 77.6796 103.354 54.7466 214.484C31.8136 325.614 103.311 434.294 214.441 457.227C325.572 480.16 434.251 408.662 457.184 297.532Z" fill="#DFDDDE"/>
<path d="M202.08 316.319C200.767 318.185 200.767 320.673 200.353 322.954C198.625 332.353 189.641 338.296 181.417 343.064C154.465 358.821 127.443 374.301 101.113 390.956C138.777 434.149 194.202 461.516 255.985 461.516C320.877 461.516 378.79 431.385 416.454 384.322C393.648 372.504 370.842 360.687 348.037 348.869C342.646 346.105 337.325 343.341 331.658 341.129C327.235 339.402 322.536 338.019 318.942 334.979C313.275 330.21 314.658 322.539 313.137 315.974C312.723 314.177 312.308 312.311 311.133 310.86C308.438 307.474 303.047 307.681 300.076 304.571C298.279 302.705 297.726 299.941 297.657 297.315C297.657 295.656 297.795 293.928 298.555 292.477C299.523 290.749 301.665 289.92 303.116 288.676C304.706 287.363 306.295 286.257 308.023 285.083C311.617 282.664 314.934 279.969 316.593 275.822C319.011 269.81 320.67 262.83 321.361 256.334C322.121 249.492 320.601 241.406 323.503 234.979C326.337 228.759 332.142 225.995 333.455 218.739C334.561 212.588 333.455 204.572 330.967 198.905C329.792 196.209 327.926 194.551 326.406 192.27C324.747 189.852 325.853 186.949 326.199 184.116C327.235 175.684 325.438 167.184 323.642 158.891C323.02 155.919 322.398 153.017 321.292 150.183C319.011 144.309 314.727 139.264 309.336 135.947C306.641 134.289 303.531 133.528 300.836 131.939C297.864 130.211 294.824 128.76 291.575 127.378C284.457 124.337 277.201 121.711 269.737 119.845C255.086 116.182 239.261 115.491 225.37 122.056C218.183 125.443 211.341 131.524 210.581 139.472C200.422 136.569 188.535 141.338 183.145 150.46C178.86 157.716 177.962 166.147 178.376 174.44C178.722 182.042 181.417 188.884 182.523 196.417C182.799 198.49 183.076 200.771 181.901 202.567C180.933 204.019 179.136 204.848 178.238 206.299C177.547 207.405 177.478 208.787 177.409 210.1C176.856 219.499 176.51 229.589 181.555 237.467C182.246 238.573 183.076 239.679 184.112 240.439C184.941 241.061 185.909 241.544 186.738 242.097C191.023 244.793 193.926 249.354 195.515 254.191C196.966 258.683 196.759 263.314 197.934 267.806C198.901 271.468 200.076 275.407 201.389 279.001C202.495 281.973 204.499 283.77 206.711 285.912C208.991 288.123 210.373 290.68 213.691 291.579C213.898 292.27 214.243 292.823 214.52 293.445C215.211 295.103 215.28 296.969 215.349 298.835C215.487 302.152 215.764 307.405 213.552 310.031C210.719 313.417 204.845 312.311 202.219 316.181L202.08 316.319Z" fill="#546F7A"/>
</svg>
