<svg width="27" height="25" viewBox="0 0 27 25" fill="none" xmlns="http://www.w3.org/2000/svg">
<path opacity="0.4" d="M25.8814 10.4433L24.5922 15.9422C23.4871 20.6912 21.3033 22.6119 17.1989 22.2172C16.5412 22.1646 15.8308 22.0462 15.0678 21.862L12.8577 21.3358C7.37195 20.0335 5.67492 17.3235 6.96414 11.8246L8.25335 6.31259C8.51645 5.19439 8.83218 4.22091 9.22683 3.41844C10.766 0.234877 13.3839 -0.620212 17.7778 0.419051L19.9747 0.932104C25.4867 2.22132 27.1706 4.94445 25.8814 10.4433Z" fill="#037EFF"/>
<path d="M20.3942 10.5343C20.3153 10.5343 20.2364 10.5212 20.1443 10.508L13.764 8.88996C13.2378 8.75841 12.9221 8.21905 13.0536 7.69284C13.1852 7.16663 13.7245 6.8509 14.2507 6.98246L20.631 8.60055C21.1572 8.7321 21.473 9.27146 21.3414 9.79767C21.2362 10.2318 20.8284 10.5343 20.3942 10.5343Z" fill="#037EFF"/>
<path d="M16.5402 14.9796C16.4613 14.9796 16.3824 14.9664 16.2903 14.9533L12.4621 13.9798C11.9359 13.8483 11.6202 13.3089 11.7517 12.7827C11.8833 12.2565 12.4227 11.9407 12.9489 12.0723L16.777 13.0458C17.3032 13.1773 17.619 13.7167 17.4874 14.2429C17.3822 14.6902 16.9875 14.9796 16.5402 14.9796Z" fill="#037EFF"/>
<path d="M17.1991 22.2212C16.3835 22.7737 15.3574 23.2341 14.1076 23.6419L12.0291 24.326C6.80653 26.0099 4.05709 24.6023 2.36006 19.3796L0.676195 14.1833C-1.00767 8.96071 0.38678 6.19811 5.6094 4.51425L7.68792 3.83017C8.22729 3.65916 8.74034 3.51445 9.22709 3.42236C8.83243 4.22483 8.5167 5.19832 8.2536 6.31651L6.96439 11.8285C5.67518 17.3274 7.3722 20.0374 12.8579 21.3398L15.0679 21.866C15.831 22.0501 16.5413 22.1685 17.1991 22.2212Z" fill="#037EFF"/>
</svg>
