<svg width="32" height="32" viewBox="0 0 32 32" fill="none" xmlns="http://www.w3.org/2000/svg">
<g clip-path="url(#clip0_1637_3684)">
<path d="M27.2 0H4.8C2.14903 0 0 2.14903 0 4.8V27.2C0 29.851 2.14903 32 4.8 32H27.2C29.851 32 32 29.851 32 27.2V4.8C32 2.14903 29.851 0 27.2 0Z" fill="#C80A0A"/>
<path d="M25.8127 18.875C25.2502 18.25 24.0002 17.9375 22.3127 17.9375C21.3127 17.9375 20.2502 18.0625 19.0002 18.25C17.6767 17.0103 16.5772 15.5514 15.7502 13.9375C16.3752 12.0625 16.8127 10.25 16.8127 8.875C16.8127 7.8125 16.4377 6.125 14.9377 6.125C14.5002 6.125 14.1252 6.375 13.8752 6.75C13.2502 7.875 13.5002 10.375 14.6877 13C13.8202 15.5083 12.7759 17.952 11.5627 20.3125C8.25019 21.6875 6.06269 23.1875 5.87519 24.375C5.75019 24.9375 6.12519 25.875 7.43769 25.875C9.37519 25.875 11.5002 23.0625 13.1252 20.1875C15.0011 19.5425 16.9233 19.041 18.8752 18.6875C21.2502 20.75 23.3127 21.0625 24.3127 21.0625C26.3127 21.0625 26.5002 19.625 25.8127 18.875ZM14.1877 6.9375C14.6877 6.1875 15.8127 6.4375 15.8127 7.9375C15.8127 8.9375 15.5002 10.5625 14.8752 12.4375C13.7502 9.8125 13.7502 7.75 14.1877 6.9375ZM6.25019 24.4375C6.43769 23.4375 8.31269 22.0625 11.2502 20.875C9.62519 23.625 8.00019 25.375 7.00019 25.375C6.37519 25.375 6.18769 24.8125 6.25019 24.4375ZM18.5627 18.3125C16.8016 18.6407 15.0676 19.1003 13.3752 19.6875C14.3002 18.0178 15.0541 16.2589 15.6252 14.4375C16.4467 15.8415 17.4328 17.1423 18.5627 18.3125ZM19.3752 18.5625C21.3752 18.25 23.0627 18.3125 23.8127 18.4375C25.6252 18.8125 25.0002 21 23.0002 20.5C21.5627 20.1875 20.3752 19.375 19.3752 18.5625Z" fill="white"/>
</g>
<defs>
<clipPath id="clip0_1637_3684">
<rect width="32" height="32" rx="16" fill="white"/>
</clipPath>
</defs>
</svg>
